<svg width="42" height="33" viewBox="0 0 42 33" fill="none" xmlns="http://www.w3.org/2000/svg">
<path d="M17.7333 9.00392C18.2811 9.31974 19.0384 9.21661 19.4251 8.78478L23.3971 4.36329C24.8231 2.7713 27.6187 2.41681 29.5926 3.58985C31.5343 4.73712 31.9129 6.94142 30.503 8.51407L18.6275 21.7399C17.9991 22.4359 16.7826 22.6035 15.9044 22.1137C15.0021 21.6109 14.8087 20.5861 15.4532 19.8707L23.4454 10.9697C23.8241 10.5443 23.7435 9.94493 23.2359 9.62267C22.6881 9.27462 21.8985 9.3713 21.4957 9.81603L13.4552 18.7686C12.0292 20.3606 12.5045 22.5906 14.5187 23.7121C16.5006 24.8143 19.2318 24.4018 20.6417 22.8291L32.5172 9.59689C34.7247 7.13478 34.0077 3.69298 30.8978 1.9463C27.8202 0.218956 23.5663 0.844152 21.3749 3.28693L17.4593 7.6504C17.0645 8.08224 17.1935 8.6881 17.7333 9.00392Z" fill="white"/>
<path d="M32.0014 15.017C31.4535 14.7334 30.7204 14.8623 30.3336 15.2877L19.7553 27.0762C17.5558 29.5254 13.2616 30.0797 10.2082 28.2879C7.18692 26.5155 6.57462 23.1059 8.75797 20.6696L13.5275 15.3586C13.9223 14.9203 13.7934 14.3145 13.2455 14.0051C12.6977 13.6893 11.9403 13.7924 11.5536 14.2307L6.79215 19.5352C3.81925 22.8416 4.68131 27.4822 8.79825 29.8799C12.9313 32.284 18.7401 31.5363 21.7211 28.217L32.3236 16.4092C32.7265 15.9516 32.5895 15.3199 32.0014 15.017Z" fill="white"/>
<path d="M15.4128 12.5554C16.0847 12.5554 16.6294 12.1196 16.6294 11.5821C16.6294 11.0446 16.0847 10.6089 15.4128 10.6089C14.741 10.6089 14.1963 11.0446 14.1963 11.5821C14.1963 12.1196 14.741 12.5554 15.4128 12.5554Z" fill="white"/>
</svg>
