<svg width="47" height="47" viewBox="0 0 47 47" fill="none" xmlns="http://www.w3.org/2000/svg">
<path d="M6.49634 47C10.0842 47 12.9927 44.0915 12.9927 40.5037C12.9927 36.9158 10.0842 34.0073 6.49634 34.0073C2.90851 34.0073 0 36.9158 0 40.5037C0 44.0915 2.90851 47 6.49634 47Z" fill="#F56A3F"/>
<path d="M31.0054 46.9508H22.6389C22.6389 34.6471 12.5991 24.6073 0.29541 24.6073V16.2408C17.2253 16.2408 31.0054 30.021 31.0054 46.9508Z" fill="#F56A3F"/>
<path d="M47 47H38.6335C38.6335 25.6901 21.3099 8.36649 0 8.36649V0C25.9361 0 47 21.0639 47 47Z" fill="#F56A3F"/>
</svg>
