<svg width="210" height="190" fill="none" xmlns="http://www.w3.org/2000/svg"><circle cx="5" cy="5" r="5" fill="#3E63A7"/><circle cx="38.334" cy="5" r="5" fill="#3E63A7"/><circle cx="71.666" cy="5" r="5" fill="#3E63A7"/><circle cx="105" cy="5" r="5" fill="#3E63A7"/><circle cx="138.333" cy="5" r="5" fill="#3E63A7"/><circle cx="171.667" cy="5" r="5" fill="#3E63A7"/><circle cx="205" cy="5" r="5" fill="#3E63A7"/><circle cx="5" cy="35" r="5" fill="#3E63A7"/><circle cx="38.334" cy="35" r="5" fill="#3E63A7"/><circle cx="71.666" cy="35" r="5" fill="#3E63A7"/><circle cx="105" cy="35" r="5" fill="#3E63A7"/><circle cx="138.333" cy="35" r="5" fill="#3E63A7"/><circle cx="171.667" cy="35" r="5" fill="#3E63A7"/><circle cx="205" cy="35" r="5" fill="#3E63A7"/><circle cx="5" cy="65" r="5" fill="#3E63A7"/><circle cx="38.334" cy="65" r="5" fill="#3E63A7"/><circle cx="71.666" cy="65" r="5" fill="#3E63A7"/><circle cx="105" cy="65" r="5" fill="#3E63A7"/><circle cx="138.333" cy="65" r="5" fill="#3E63A7"/><circle cx="171.667" cy="65" r="5" fill="#3E63A7"/><circle cx="205" cy="65" r="5" fill="#3E63A7"/><circle cx="5" cy="95" r="5" fill="#3E63A7"/><circle cx="38.334" cy="95" r="5" fill="#3E63A7"/><circle cx="71.666" cy="95" r="5" fill="#3E63A7"/><circle cx="105" cy="95" r="5" fill="#3E63A7"/><circle cx="138.333" cy="95" r="5" fill="#3E63A7"/><circle cx="171.667" cy="95" r="5" fill="#3E63A7"/><circle cx="205" cy="95" r="5" fill="#3E63A7"/><circle cx="5" cy="125" r="5" fill="#3E63A7"/><circle cx="38.334" cy="125" r="5" fill="#3E63A7"/><circle cx="71.666" cy="125" r="5" fill="#3E63A7"/><circle cx="105" cy="125" r="5" fill="#3E63A7"/><circle cx="138.333" cy="125" r="5" fill="#3E63A7"/><circle cx="171.667" cy="125" r="5" fill="#3E63A7"/><circle cx="205" cy="125" r="5" fill="#3E63A7"/><circle cx="5" cy="155" r="5" fill="#3E63A7"/><circle cx="38.334" cy="155" r="5" fill="#3E63A7"/><circle cx="71.666" cy="155" r="5" fill="#3E63A7"/><circle cx="105" cy="155" r="5" fill="#3E63A7"/><circle cx="138.333" cy="155" r="5" fill="#3E63A7"/><circle cx="171.667" cy="155" r="5" fill="#3E63A7"/><circle cx="205" cy="155" r="5" fill="#3E63A7"/><circle cx="5" cy="185" r="5" fill="#3E63A7"/><circle cx="38.334" cy="185" r="5" fill="#3E63A7"/><circle cx="71.666" cy="185" r="5" fill="#3E63A7"/><circle cx="105" cy="185" r="5" fill="#3E63A7"/><circle cx="138.333" cy="185" r="5" fill="#3E63A7"/><circle cx="171.667" cy="185" r="5" fill="#3E63A7"/><circle cx="205" cy="185" r="5" fill="#3E63A7"/></svg>