<svg width="53" height="70" viewBox="0 0 53 70" fill="none" xmlns="http://www.w3.org/2000/svg">
<path d="M47.9276 59.0625H43.4157V56.5332C43.4157 53.8856 42.4388 51.3573 40.6961 49.4021C40.9158 49.2029 41.1314 48.9976 41.3426 48.7863C44.7071 45.4217 46.5602 40.9626 46.5602 36.2305C46.5602 33.8643 46.0988 31.5685 45.1892 29.4C45.2946 28.924 45.3517 28.43 45.3517 27.9228C45.3517 25.8902 44.4591 24.0632 43.0464 22.8099L43.4595 22.0942C44.3507 20.5507 44.1206 18.6631 43.0248 17.3788L44.693 14.4893C44.9287 14.4886 45.1661 14.4575 45.4001 14.3948C46.1066 14.2056 46.6964 13.7536 47.0607 13.1223L49.1115 9.57026C49.4891 8.91634 49.265 8.08017 48.6111 7.70269L35.5869 0.183173C35.2728 0.00174724 34.8993 -0.047198 34.5495 0.0465909C34.1991 0.140516 33.9006 0.36952 33.7193 0.683562L31.6685 4.23565C31.1639 5.10982 31.2005 6.14861 31.6703 6.96687L30.001 9.85806C29.4078 9.74827 28.7918 9.77124 28.1905 9.93243C27.1302 10.2165 26.2453 10.8941 25.6991 11.8402L18.1796 24.8646C17.6333 25.8106 17.4889 26.9156 17.773 27.976C17.9342 28.5776 18.2223 29.1224 18.6138 29.5812L17.1296 32.1519C16.7651 32.7831 16.6687 33.5199 16.8581 34.2265C17.0474 34.9329 17.4993 35.5227 18.1305 35.8871L26.4187 40.6722C26.8482 40.9202 27.3176 41.0381 27.7812 41.0381C28.7269 41.0381 29.648 40.5477 30.1538 39.6714L31.6386 37.0996C31.8813 37.1445 32.1276 37.1685 32.3755 37.1685C32.733 37.1685 33.0934 37.1215 33.4486 37.0262C34.509 36.7421 35.3938 36.0645 35.94 35.1184L36.3517 34.4054C36.9493 34.6055 37.583 34.7254 38.2407 34.7516C38.3174 35.2396 38.3571 35.7341 38.3571 36.2306C38.3571 38.7721 37.3574 41.1712 35.5424 42.9863C33.7275 44.8014 31.3282 45.8008 28.7868 45.8008H24.0014C23.2464 45.8008 22.6342 46.4129 22.6342 47.168C22.6342 47.9231 23.2464 48.5352 24.0014 48.5352H28.7868C29.5406 48.5352 30.154 49.1485 30.154 49.9024C30.154 50.6562 29.5406 51.2695 28.7868 51.2695H6.91237C6.1585 51.2695 5.54518 50.6562 5.54518 49.9024C5.54518 49.1485 6.1585 48.5352 6.91237 48.5352H11.6967C12.4517 48.5352 13.0639 47.9231 13.0639 47.168C13.0639 46.4129 12.4517 45.8008 11.6967 45.8008H6.91237C4.65077 45.8008 2.81081 47.6408 2.81081 49.9024C2.81081 52.164 4.65077 54.0039 6.91237 54.0039H10.3689V59.0625H4.17773C1.91613 59.0625 0.0761719 60.9025 0.0761719 63.164V68.6328C0.0761719 69.3879 0.688397 70 1.44336 70H50.662C51.417 70 52.0292 69.3879 52.0292 68.6328V63.164C52.0292 60.9025 50.1892 59.0625 47.9276 59.0625ZM40.6813 56.5332V59.0625H37.9469V56.5332C37.9469 54.8961 37.1955 53.4315 36.0197 52.4653C36.8891 52.0756 37.7276 51.6142 38.5289 51.0848C39.9057 52.5604 40.6813 54.4998 40.6813 56.5332ZM28.7868 54.0039H32.6833C34.0779 54.0039 35.2125 55.1385 35.2125 56.5332V59.0625H25.4078V54.0039H28.7868ZM38.5158 32.0242C36.2542 32.0242 34.4142 30.1843 34.4142 27.9227C34.4142 25.6611 36.2542 23.8211 38.5158 23.8211C40.7774 23.8211 42.6174 25.6611 42.6174 27.9227C42.6174 30.1843 40.7774 32.0242 38.5158 32.0242ZM32.486 11.0226L33.8533 8.65439L42.1416 13.4395L40.7743 15.8078L32.486 11.0226ZM35.4037 3.23473L46.0598 9.38706L44.6927 11.755L34.0365 5.60269L35.4037 3.23473ZM19.4977 33.5191L20.865 31.151L29.1532 35.9361L27.786 38.3043L19.4977 33.5191ZM33.5721 33.7513C33.391 34.0649 33.0959 34.2899 32.7409 34.3851C32.3863 34.4801 32.0183 34.4328 31.7045 34.2516L21.0495 28.1C21.0491 28.0997 21.0488 28.0994 21.0484 28.0993C21.0482 28.0992 21.048 28.0992 21.0477 28.099C20.7343 27.9179 20.5094 27.623 20.4144 27.2683C20.3194 26.9136 20.3667 26.5454 20.5478 26.2317L28.0674 13.2074C28.2484 12.8938 28.5436 12.6687 28.8985 12.5736C29.253 12.4785 29.6212 12.5258 29.9349 12.707L40.5912 18.8593C41.2439 19.2363 41.4685 20.0741 41.0916 20.7269L40.6801 21.4398C39.9993 21.2118 39.2723 21.0866 38.5159 21.0866C34.7466 21.0866 31.68 24.1532 31.68 27.9225C31.68 29.9551 32.5727 31.7822 33.9854 33.0354L33.5721 33.7513ZM32.4127 47.9882C34.2995 47.4038 36.0326 46.3631 37.4761 44.9198C39.8075 42.5883 41.0914 39.5025 41.0914 36.2306C41.0914 35.5871 41.0398 34.946 40.9395 34.3133C41.877 33.9566 42.7159 33.3995 43.4044 32.6943C43.6843 33.8444 43.8258 35.0266 43.8258 36.2305C43.8258 40.2323 42.2572 44.0046 39.409 46.8528C37.5402 48.7217 35.2735 50.0395 32.8053 50.7248C32.8596 50.4591 32.8882 50.184 32.8882 49.9024C32.8883 49.2114 32.7158 48.5601 32.4127 47.9882ZM13.1033 54.0039H22.6734V59.0625H13.1033V54.0039ZM49.2948 67.2656H2.81054V63.164C2.81054 62.4102 3.42386 61.7969 4.17773 61.7969H47.9276C48.6815 61.7969 49.2948 62.4102 49.2948 63.164V67.2656Z" fill="black"/>
<path d="M19.2164 47.1682C19.2164 46.4131 18.6041 45.801 17.8492 45.801H17.8481C17.0931 45.801 16.4814 46.4131 16.4814 47.1682C16.4814 47.9233 17.0941 48.5354 17.8492 48.5354C18.6043 48.5354 19.2164 47.9233 19.2164 47.1682Z" fill="black"/>
</svg>
