<svg width="70" height="70" viewBox="0 0 70 70" fill="none" xmlns="http://www.w3.org/2000/svg">
<g clip-path="url(#clip0)">
<path d="M67.3928 54.4212L57.7464 44.7753C57.2125 44.2415 56.3471 44.2415 55.813 44.7751L55.3416 45.2464L52.024 41.9271C51.7677 41.6706 51.4198 41.5265 51.0573 41.5264C51.0573 41.5264 51.0571 41.5264 51.057 41.5264C50.6945 41.5264 50.3469 41.6704 50.0905 41.9266L49.3356 42.6811L42.8506 36.199C46.0821 31.3747 47.3339 25.5428 46.4897 19.923H50.9231C51.5154 21.9297 53.3756 23.3992 55.5741 23.3992C58.2456 23.3992 60.4191 21.2265 60.4191 18.5558C60.4191 15.8851 58.2457 13.7124 55.5741 13.7124C53.3758 13.7124 51.5155 15.1818 50.9231 17.1886H45.9073C45.2565 14.8458 44.2251 12.5769 42.8026 10.4762C42.3791 9.851 41.529 9.68749 40.9038 10.1109C40.2786 10.5343 40.1149 11.3843 40.5384 12.0095C41.6425 13.6399 42.4798 15.385 43.0555 17.1886H40.0847C39.6058 17.1886 39.1617 17.4392 38.9141 17.8494L36.2924 22.1929L32.3532 13.6947C32.1316 13.2166 31.6398 12.9026 31.1128 12.9026C30.5857 12.9026 30.094 13.2166 29.8723 13.6947L25.9326 22.1942L23.3074 17.8489C23.0598 17.4392 22.616 17.1887 22.1372 17.1887H18.4794C17.8875 15.182 16.0288 13.7125 13.8322 13.7125C11.1585 13.7125 8.98328 15.8852 8.98328 18.5559C8.98328 21.2266 11.1585 23.3993 13.8322 23.3993C16.0288 23.3993 17.8875 21.9299 18.4794 19.9231H21.3658L24.9216 25.8086C25.4772 26.7285 26.8806 26.6507 27.3322 25.6765L31.1127 17.5207L34.8931 25.6765C35.3448 26.6511 36.7485 26.7285 37.304 25.8081L40.856 19.9231H43.7208C44.6399 25.2924 43.2487 30.8529 40.0566 35.4197C37.8289 38.6068 34.2925 40.7192 33.743 41.0316C33.3015 40.2213 32.4409 39.6702 31.4538 39.6702H31.2148C30.9374 38.7596 30.5718 37.8787 30.1214 37.0357L30.2918 36.8655C30.7826 36.3748 31.053 35.721 31.053 35.0246C31.053 34.3281 30.7826 33.6743 30.291 33.183L27.8453 30.7421C26.8303 29.7275 25.1786 29.7275 24.1636 30.7421L23.9961 30.9095C23.1561 30.462 22.2749 30.0969 21.3601 29.8176V29.5814C21.3601 28.1458 20.1919 26.978 18.7561 26.978H15.2978C13.864 26.978 12.6977 28.1458 12.6977 29.5814V29.8172C11.7826 30.0964 10.9008 30.4618 10.0594 30.9104L9.89027 30.7421C8.87513 29.7275 7.22356 29.7275 6.20856 30.7421L5.19533 31.7549C1.74454 24.1397 3.33527 15.0221 9.33943 9.02071C15.309 3.05729 24.1571 1.39533 31.8813 4.78651C32.5635 5.08593 33.3833 4.76655 33.6827 4.08432C33.9823 3.40209 33.6627 2.58246 32.9805 2.28291C28.7772 0.437471 24.1577 -0.108586 19.6217 0.703253C14.979 1.53437 10.755 3.74157 7.40663 7.08654C0.307071 14.1828 -1.35407 25.1195 3.22999 33.9661C3.08384 34.2949 3.00482 34.6531 3.00482 35.0244C3.00482 35.7209 3.27511 36.3745 3.76402 36.8633L3.93492 37.0348C3.48552 37.878 3.11993 38.7592 2.84116 39.6699H2.60026C1.16635 39.67 0 40.8362 0 42.2696V45.7266C0 47.1621 1.16635 48.33 2.60013 48.33H2.84144C3.12034 49.2407 3.48538 50.121 3.93382 50.963L3.76593 51.1308C3.27511 51.6215 3.00482 52.2753 3.00482 52.9717C3.00482 53.6682 3.27511 54.3218 3.76525 54.8118L6.2087 57.258C7.22384 58.2725 8.87541 58.2725 9.89041 57.258L10.0608 57.0878C10.9027 57.5377 11.7844 57.903 12.6979 58.1807V58.4186C12.6979 59.8542 13.8643 61.022 15.2981 61.022H18.7564C20.1922 61.022 21.3603 59.8542 21.3603 58.4186V58.1802C22.2717 57.9026 23.1522 57.5376 23.9948 57.0882L24.1639 57.258C25.179 58.2725 26.8306 58.2723 27.8456 57.258L30.2922 54.8126C30.783 54.322 31.0535 53.6682 31.0535 52.9717C31.0535 52.2753 30.783 51.6216 30.2902 51.1289L30.1229 50.9625C30.5723 50.1207 30.9374 49.2407 31.2149 48.3302H31.4542C32.89 48.3302 34.0581 47.1624 34.0581 45.7268V43.9625C34.914 43.5321 35.7394 43.0504 36.5315 42.5193L43.0146 48.9996L42.2625 49.7514C42.0059 50.0078 41.8618 50.3557 41.8618 50.7184C41.8618 51.0812 42.0059 51.429 42.2625 51.6855L45.5814 55.0028L45.1123 55.4716C44.8558 55.728 44.7116 56.0758 44.7116 56.4385C44.7116 56.8011 44.8557 57.1489 45.112 57.4054L54.7587 67.0516C56.5002 68.7925 58.7881 69.6628 61.0756 69.6628C63.3634 69.6628 65.6511 68.7925 67.3926 67.0516C68.6824 65.7624 69.5555 64.0899 69.8671 62.2923C70.1799 60.4884 69.9394 58.5968 69.162 56.9375C68.7244 56.0035 68.1219 55.1501 67.3928 54.4212ZM55.5738 16.4468C56.7377 16.4468 57.6845 17.3928 57.6845 18.5558C57.6845 19.7187 56.7377 20.6648 55.5738 20.6648C54.4078 20.6648 53.4593 19.7187 53.4593 18.5558C53.4593 17.3928 54.4078 16.4468 55.5738 16.4468ZM13.8323 20.665C12.6664 20.665 11.7178 19.7189 11.7178 18.5559C11.7178 17.393 12.6664 16.4469 13.8323 16.4469C14.9961 16.4469 15.943 17.393 15.943 18.5559C15.943 19.7189 14.9961 20.665 13.8323 20.665ZM31.3236 45.5956H30.1629C29.5232 45.5956 28.9692 46.0391 28.8289 46.6632C28.5267 48.0087 27.9974 49.2844 27.2555 50.4553C26.9125 50.9967 26.9917 51.7038 27.446 52.1559L28.2656 52.9717L26.0048 55.2316L25.1878 54.4114C24.7355 53.9576 24.029 53.8784 23.488 54.2211C22.3164 54.9626 21.0399 55.4919 19.6939 55.7939C19.0696 55.9339 18.6259 56.4881 18.6259 57.1278V58.2875H15.4322V57.1278C15.4322 56.4879 14.9881 55.9335 14.3636 55.7936C13.0143 55.4917 11.7386 54.9629 10.5717 54.222C10.0312 53.8789 9.32507 53.9568 8.87226 54.4092L8.04948 55.2316L5.79211 52.9716L6.6101 52.1539C7.06196 51.7023 7.14071 50.9979 6.80001 50.4576C6.06049 49.2848 5.53043 48.007 5.22432 46.6598C5.08295 46.0372 4.52951 45.5954 3.89117 45.5954H2.73439V42.4043H3.89117C4.52978 42.4043 5.0835 41.9621 5.22459 41.3391C5.52934 39.9943 6.0594 38.7167 6.80001 37.5421C7.14016 37.0026 7.06223 36.2998 6.61215 35.8479L5.79184 35.0246L8.04948 32.7679L8.87404 33.5886C9.32658 34.0388 10.0304 34.1162 10.5698 33.7748C11.7348 33.0374 13.0121 32.508 14.3665 32.2015C14.9895 32.0605 15.4318 31.5068 15.4318 30.868V29.7122H18.6255V30.868C18.6255 31.5065 19.0676 32.0601 19.6902 32.2013C21.0468 32.5092 22.3246 33.0386 23.4876 33.7748C24.0277 34.1169 24.7331 34.0387 25.1853 33.5867L26.0043 32.768L28.2653 35.0244L27.4435 35.8459C26.9908 36.2983 26.9126 37.004 27.2551 37.5446C27.9982 38.7174 28.5274 39.993 28.8284 41.336C28.9682 41.9604 29.5226 42.4043 30.1625 42.4043H31.3232V45.5956H31.3236ZM38.7268 40.8473C39.6044 40.0919 40.4242 39.2726 41.1793 38.3947L47.4015 44.6142L44.9484 47.0663L38.7268 40.8473ZM45.1629 50.718L45.8779 50.0033C45.8909 49.9912 45.9046 49.9804 45.9172 49.9677C45.9296 49.9553 45.9403 49.9419 45.952 49.9292L51.0564 44.8271L53.4076 47.1795L47.5151 53.0693L45.1629 50.718ZM65.4594 65.1172C63.0418 67.5334 59.1088 67.5333 56.6917 65.1173L48.0124 56.4384L56.7795 47.6754L65.4594 56.355C67.2864 58.181 67.7791 61.0516 66.678 63.3881C66.3757 64.0296 65.9609 64.6161 65.4594 65.1172Z" fill="black"/>
<path d="M17.0265 35.3762C12.2706 35.3762 8.40137 39.244 8.40137 43.9981C8.40137 48.7522 12.2706 52.6201 17.0265 52.6201C21.7826 52.6201 25.6517 48.7522 25.6517 43.9981C25.6517 39.244 21.7826 35.3762 17.0265 35.3762ZM17.0265 49.8858C13.7784 49.8858 11.1357 47.2446 11.1357 43.9981C11.1357 40.7517 13.7784 38.1106 17.0265 38.1106C20.2747 38.1106 22.9173 40.7517 22.9173 43.9981C22.9173 47.2446 20.2747 49.8858 17.0265 49.8858Z" fill="black"/>
<path d="M36.6475 7.72189C36.914 7.98835 37.2626 8.12138 37.6115 8.12138C37.9615 8.12138 38.3117 7.9874 38.5791 7.71998C39.113 7.18609 39.1112 6.31847 38.5772 5.78445C38.0432 5.25056 37.1777 5.25056 36.6436 5.78445C36.1097 6.31833 36.1097 7.18404 36.6436 7.71806L36.6475 7.72189Z" fill="black"/>
</g>
<defs>
<clipPath id="clip0">
<rect width="70" height="70" fill="white"/>
</clipPath>
</defs>
</svg>
