<svg width="58" height="70" viewBox="0 0 58 70" fill="none" xmlns="http://www.w3.org/2000/svg">
<path d="M42.3823 25.8726H15.7217C14.9666 25.8726 14.3545 26.4846 14.3545 27.2397C14.3545 27.9948 14.9666 28.6069 15.7217 28.6069H42.3823C43.1374 28.6069 43.7495 27.9948 43.7495 27.2397C43.7495 26.4846 43.1374 25.8726 42.3823 25.8726Z" fill="black"/>
<path d="M42.3827 32.0251H9.57031C8.81521 32.0251 8.20312 32.6372 8.20312 33.3923C8.20312 34.1474 8.81521 34.7595 9.57031 34.7595H42.3827C43.1378 34.7595 43.7499 34.1474 43.7499 33.3923C43.7499 32.6372 43.1378 32.0251 42.3827 32.0251Z" fill="black"/>
<path d="M9.57031 22.4543H42.3827C43.1378 22.4543 43.7499 21.8422 43.7499 21.0872C43.7499 20.3321 43.1378 19.72 42.3827 19.72H9.57031C8.81521 19.72 8.20312 20.3321 8.20312 21.0872C8.20312 21.8422 8.81521 22.4543 9.57031 22.4543Z" fill="black"/>
<path d="M23.2422 38.1772H9.57032C8.81522 38.1772 8.20312 38.7893 8.20312 39.5444C8.20312 40.2995 8.81522 40.9116 9.57032 40.9116H23.2422C23.9973 40.9116 24.6094 40.2995 24.6094 39.5444C24.6094 38.7893 23.9973 38.1772 23.2422 38.1772Z" fill="black"/>
<path d="M17.7735 44.3301H9.57032C8.81522 44.3301 8.20312 44.9422 8.20312 45.6973C8.20312 46.4524 8.81522 47.0645 9.57032 47.0645H17.7735C18.5286 47.0645 19.1407 46.4524 19.1407 45.6973C19.1407 44.9422 18.5286 44.3301 17.7735 44.3301Z" fill="black"/>
<path d="M9.56975 28.6069C10.3248 28.6069 10.9369 27.9948 10.9369 27.2397C10.9369 26.4846 10.3248 25.8726 9.56975 25.8726H9.56879C8.81369 25.8726 8.20215 26.4846 8.20215 27.2397C8.20215 27.9948 8.81465 28.6069 9.56975 28.6069Z" fill="black"/>
<path d="M47.8512 47.1089C46.7557 47.1089 45.7257 47.5356 44.9511 48.3101L40.5595 52.7018L39.8137 51.9559C39.0391 51.1812 38.0092 50.7546 36.9137 50.7546C35.8181 50.7546 34.7884 51.1812 34.0137 51.9559C33.2391 52.7305 32.8125 53.7604 32.8125 54.8559C32.8125 55.9515 33.2392 56.9814 34.0137 57.7559L37.6596 61.4018C38.4593 62.2014 39.5093 62.6011 40.5595 62.6009C41.6097 62.6009 42.6602 62.2012 43.4596 61.4018L50.7513 54.1101C52.3503 52.5111 52.3503 49.909 50.7513 48.3101C49.9766 47.5356 48.9467 47.1089 47.8512 47.1089ZM48.8176 52.1768L41.526 59.4684C40.9929 60.0014 40.1257 60.0015 39.5929 59.4684L35.9471 55.8225C35.6889 55.5644 35.5467 55.2213 35.5467 54.8561C35.5467 54.491 35.6889 54.1477 35.9471 53.8896C36.2052 53.6315 36.5483 53.4893 36.9135 53.4893C37.2787 53.4893 37.622 53.6315 37.88 53.8896L39.5925 55.6021C39.8489 55.8585 40.1967 56.0026 40.5593 56.0026C40.9219 56.0026 41.2697 55.8585 41.526 55.6021L46.8843 50.2439C47.1424 49.9856 47.4857 49.8435 47.8508 49.8435C48.2159 49.8435 48.5591 49.9857 48.8172 50.2439C49.3507 50.7766 49.3507 51.6439 48.8176 52.1768Z" fill="black"/>
<path d="M53.3202 39.8171H51.953V2.62939C51.953 1.12166 50.7264 -0.10498 49.2187 -0.10498H15.0394C14.6769 -0.10498 14.3291 0.0391208 14.0727 0.295468L0.400449 13.9677C0.144101 14.2241 0 14.5719 0 14.9345V61.6918C0 63.1995 1.22664 64.4261 2.73437 64.4261H27.3438V65.7935C27.3438 68.0551 29.1838 69.895 31.4454 69.895H53.3203C55.5819 69.895 57.4219 68.0551 57.4219 65.7935V43.9185C57.4218 41.6571 55.5818 39.8171 53.3202 39.8171ZM13.6723 4.56286V13.5673H4.66784L13.6723 4.56286ZM2.73437 61.6918V16.3016H13.6721C15.1799 16.3016 16.4065 15.075 16.4065 13.5673V2.62939H49.2185V39.8171H31.4451C29.1835 39.8171 27.3436 41.6571 27.3436 43.9187V61.6918H2.73437ZM54.6874 65.7936C54.6874 66.5475 54.0741 67.1608 53.3202 67.1608H31.4453C30.6914 67.1608 30.0781 66.5475 30.0781 65.7936V43.9187C30.0781 43.1648 30.6914 42.5515 31.4453 42.5515H53.3202C54.0741 42.5515 54.6874 43.1648 54.6874 43.9187V65.7936Z" fill="black"/>
</svg>
