<svg width="71" height="70" viewBox="0 0 71 70" fill="none" xmlns="http://www.w3.org/2000/svg">
<path d="M13.0578 40.4939C11.8523 41.2089 11.042 42.5231 11.042 44.0234C11.042 46.285 12.882 48.125 15.1436 48.125C16.9258 48.125 18.4456 46.9819 19.01 45.3906H29.6357C31.8973 45.3906 33.7373 47.2306 33.7373 49.4922C33.7373 51.7538 31.8973 53.5938 29.6357 53.5938H13.2295C9.46016 53.5938 6.39355 56.6604 6.39355 60.4297C6.39355 64.199 9.46016 67.2656 13.2295 67.2656H26.9014C27.6565 67.2656 28.2686 66.6535 28.2686 65.8984C28.2686 65.1433 27.6565 64.5312 26.9014 64.5312H13.2295C10.9679 64.5312 9.12793 62.6913 9.12793 60.4297C9.12793 58.1681 10.9679 56.3281 13.2295 56.3281H29.6357C33.4051 56.3281 36.4717 53.2615 36.4717 49.4922C36.4717 45.7229 33.4051 42.6562 29.6357 42.6562H19.01C18.6866 41.7446 18.0498 40.9805 17.2293 40.4939L27.6716 23.3609C29.3143 20.8917 30.1826 18.0146 30.1826 15.0391C30.1826 6.74652 23.4361 0 15.1436 0C6.85102 0 0.104492 6.74652 0.104492 15.0391C0.104492 18.0146 0.972793 20.8917 2.61547 23.3609L13.0578 40.4939ZM15.1436 45.3906C14.3897 45.3906 13.7764 44.7773 13.7764 44.0234C13.7764 43.2696 14.3897 42.6562 15.1436 42.6562C15.8974 42.6562 16.5107 43.2696 16.5107 44.0234C16.5107 44.7773 15.8974 45.3906 15.1436 45.3906ZM15.1436 2.73438C21.9284 2.73438 27.4482 8.25426 27.4482 15.0391C27.4482 17.482 26.7336 19.8427 25.3817 21.8661C25.3712 21.8818 25.361 21.8978 25.3511 21.9141L15.1436 38.662C15.1436 38.662 4.9159 21.8818 4.90537 21.8661C3.5535 19.8427 2.83887 17.482 2.83887 15.0391C2.83887 8.25426 8.35875 2.73438 15.1436 2.73438Z" fill="black"/>
<path d="M15.1436 21.875C18.9129 21.875 21.9795 18.8084 21.9795 15.0391C21.9795 11.2697 18.9129 8.20312 15.1436 8.20312C11.3742 8.20312 8.30762 11.2697 8.30762 15.0391C8.30762 18.8084 11.3742 21.875 15.1436 21.875ZM15.1436 10.9375C17.4052 10.9375 19.2451 12.7775 19.2451 15.0391C19.2451 17.3007 17.4052 19.1406 15.1436 19.1406C12.882 19.1406 11.042 17.3007 11.042 15.0391C11.042 12.7775 12.882 10.9375 15.1436 10.9375Z" fill="black"/>
<path d="M55.0654 22.6953C46.7729 22.6953 40.0264 29.4418 40.0264 37.7344C40.0264 40.7147 40.8974 43.5962 42.5453 46.0679L52.9486 62.3867C52.1431 62.8741 51.5184 63.631 51.1992 64.5312H39.2061C38.451 64.5312 37.8389 65.1433 37.8389 65.8984C37.8389 66.6535 38.451 67.2656 39.2061 67.2656H51.199C51.7634 68.8569 53.283 70 55.0654 70C57.327 70 59.167 68.16 59.167 65.8984C59.167 64.4108 58.3709 63.1058 57.1824 62.3867L67.5857 46.0679C69.2335 43.5962 70.1045 40.7147 70.1045 37.7344C70.1045 29.4418 63.358 22.6953 55.0654 22.6953ZM55.0654 67.2656C54.3116 67.2656 53.6982 66.6523 53.6982 65.8984C53.6982 65.1446 54.3116 64.5312 55.0654 64.5312C55.8193 64.5312 56.4326 65.1446 56.4326 65.8984C56.4326 66.6523 55.8193 67.2656 55.0654 67.2656ZM65.3036 44.5614C65.2983 44.5696 55.0654 60.6207 55.0654 60.6207C55.0654 60.6207 44.8326 44.5695 44.8272 44.5614C43.4754 42.538 42.7607 40.1773 42.7607 37.7344C42.7607 30.9496 48.2806 25.4297 55.0654 25.4297C61.8502 25.4297 67.3701 30.9496 67.3701 37.7344C67.3701 40.1773 66.6555 42.538 65.3036 44.5614Z" fill="black"/>
<path d="M55.0654 30.8984C51.2961 30.8984 48.2295 33.965 48.2295 37.7344C48.2295 41.5037 51.2961 44.5703 55.0654 44.5703C58.8348 44.5703 61.9014 41.5037 61.9014 37.7344C61.9014 33.965 58.8348 30.8984 55.0654 30.8984ZM55.0654 41.8359C52.8038 41.8359 50.9639 39.996 50.9639 37.7344C50.9639 35.4728 52.8038 33.6328 55.0654 33.6328C57.327 33.6328 59.167 35.4728 59.167 37.7344C59.167 39.996 57.327 41.8359 55.0654 41.8359Z" fill="black"/>
<path d="M33.0537 67.2656C33.8088 67.2656 34.4209 66.6535 34.4209 65.8984C34.4209 65.1434 33.8088 64.5312 33.0537 64.5312C32.2986 64.5312 31.6865 65.1434 31.6865 65.8984C31.6865 66.6535 32.2986 67.2656 33.0537 67.2656Z" fill="black"/>
</svg>
