<svg width="70" height="70" viewBox="0 0 70 70" fill="none" xmlns="http://www.w3.org/2000/svg">
<g clip-path="url(#clip0)">
<path d="M60.8398 69.9863C61.5949 69.9863 62.207 69.3742 62.207 68.6191C62.207 67.8641 61.5949 67.252 60.8398 67.252C60.0848 67.252 59.4727 67.8641 59.4727 68.6191C59.4727 69.3742 60.0848 69.9863 60.8398 69.9863Z" fill="black"/>
<path d="M20.3306 40.6191C20.1529 40.6191 19.9888 40.6465 19.8521 40.7148L16.9127 41.918L16.899 41.9316C16.2564 42.2188 15.9693 42.9434 16.2291 43.5723C16.4205 44.0508 16.8853 44.3652 17.3912 44.3652C17.5552 44.3652 17.7193 44.3242 17.8697 44.2559L20.8091 43.0527L20.8228 43.0391C21.4654 42.752 21.7525 42.0273 21.4927 41.3848C21.2877 40.9199 20.8365 40.6191 20.3306 40.6191Z" fill="black"/>
<path d="M9.61119 14.2871C9.43345 14.2871 9.26939 14.3145 9.13267 14.3828L6.22056 15.5859C5.59165 15.832 5.2772 16.5703 5.5233 17.2129L5.53697 17.2402C5.72837 17.7051 6.19322 18.0059 6.68541 18.0059C6.86314 18.0059 7.0272 17.9785 7.16392 17.9102L10.1034 16.707L10.117 16.6934C10.7596 16.4062 11.0467 15.6816 10.787 15.0527C10.5956 14.5879 10.1307 14.2871 9.61119 14.2871Z" fill="black"/>
<path d="M35.1099 5.1543C34.8912 4.68945 34.4537 4.40234 33.9478 4.40234C33.7701 4.40234 33.606 4.42969 33.4693 4.49805L30.5299 5.70117C29.8873 5.98828 29.6002 6.71289 29.8599 7.3418C30.0513 7.82031 30.5162 8.12109 31.0357 8.12109C31.2134 8.12109 31.3775 8.09375 31.5142 8.02539L34.4537 6.82227C34.7545 6.68555 35.0006 6.45313 35.1236 6.15234C35.2603 5.83789 35.2603 5.48242 35.1236 5.16797L35.1099 5.1543Z" fill="black"/>
<path d="M67.7168 42.8066L63.3555 38.5547V30.2012C63.3555 29.2031 62.5352 28.3828 61.5371 28.3828H60.9492C60.252 28.3828 59.6914 28.9434 59.6914 29.6406C59.6914 30.3379 60.252 30.8984 60.9492 30.8984H60.8399V43.2168C60.8399 43.9961 60.5801 44.748 60.1016 45.3496L55.2754 40.332C54.6602 39.6895 53.8398 39.334 52.9512 39.334C52.1035 39.334 51.2969 39.6621 50.6953 40.2637C49.6699 41.2754 49.4238 42.793 50.0938 44.0508L51.4336 46.6348H45.1172V42.793H45.5137C46.6074 42.793 47.6328 42.3555 48.3984 41.5762C49.1641 40.7969 49.5605 39.7578 49.5332 38.6504C49.4648 36.4902 47.6328 34.7402 45.459 34.7402H45.1035V30.8984H49.6563C50.6543 30.8984 51.4746 30.0781 51.4746 29.0801V27.9863C51.4746 27.1523 52.1582 26.4687 52.9922 26.4687C53.8125 26.4687 54.5098 27.166 54.5098 27.9863V29.1074C54.5098 30.1055 55.3301 30.9258 56.3281 30.9258H57.1348C57.832 30.9258 58.3926 30.3652 58.3926 29.668C58.3926 28.9707 57.832 28.4102 57.1348 28.4102H57.0391V28C57.0391 25.7852 55.2344 23.9805 53.0195 23.9805C50.8047 23.9805 49 25.7852 49 28V28.3965H44.4336C43.4355 28.3965 42.6152 29.2168 42.6152 30.2148V36.0254C42.6152 36.7227 43.1758 37.2832 43.873 37.2832H45.4863C46.334 37.2832 47.0313 37.9395 47.0449 38.7461C47.0586 39.1699 46.8945 39.5527 46.6074 39.8535C46.3203 40.1406 45.9375 40.3047 45.5273 40.3047H43.8594C43.1621 40.3047 42.6016 40.8652 42.6016 41.5625V47.373C42.6016 48.3711 43.4219 49.1914 44.4199 49.1914H52.7324L53.9082 51.4609C52.5273 53.252 52.1172 55.6719 52.8555 57.8184C53.0332 58.3516 53.1426 58.8984 53.1426 59.4316L53.2109 62.9453H52.8555C51.625 62.9453 50.6133 63.957 50.6133 65.1875V67.7578C50.6133 68.9883 51.625 70 52.8555 70H57.1074C57.8047 70 58.3652 69.4394 58.3652 68.7422C58.3652 68.0449 57.8047 67.4844 57.1074 67.4844H53.1289V65.4609H64.7774V67.4844H64.5176C63.8203 67.4844 63.2598 68.0449 63.2598 68.7422C63.2598 69.4394 63.8203 70 64.5176 70H65.0645C66.2949 70 67.3066 68.9883 67.3066 67.7578V65.1738C67.3066 63.9434 66.2949 62.9316 65.0645 62.9316H64.2578V59.8008C64.2578 59.2129 64.4356 58.6523 64.7637 58.1602C64.7637 58.1602 67.5117 54.1816 68.4824 52.7051C69.4531 51.2285 69.7129 50.2988 69.8359 49.7383C70.3828 47.2227 69.6035 44.625 67.7168 42.8066ZM66.377 51.3242L62.6582 56.752C62.043 57.6543 61.7148 58.707 61.7148 59.8008V62.9453H55.7129L55.6445 59.3906C55.6309 58.584 55.4805 57.7773 55.207 56.9981C54.7285 55.6172 55.002 54.0449 55.9316 52.8965C56.5195 52.1855 56.6152 51.2148 56.1777 50.4082L52.3086 42.916C52.1582 42.6289 52.2129 42.3008 52.4453 42.0684C52.582 41.9316 52.7598 41.8633 52.9375 41.8633C53.1289 41.8633 53.3203 41.9453 53.457 42.082L60.7168 49.6152C60.9492 49.8477 61.2774 49.9844 61.6192 49.9844C61.9473 49.9844 62.2617 49.8613 62.4942 49.6289C62.7266 49.3965 62.8633 49.082 62.8633 48.7539C62.8633 48.4121 62.7402 48.0977 62.5078 47.8652L61.8379 47.168C62.8086 46.0742 63.3418 44.666 63.3418 43.2031V42.0684L65.9531 44.6113C67.1973 45.8145 67.7168 47.5371 67.3613 49.2324C67.293 49.5332 66.5957 50.9688 66.377 51.3242Z" fill="black"/>
<path d="M46.3206 17.623L40.5647 3.48633C39.7034 1.36719 37.6799 0 35.3967 0C34.6858 0 33.9749 0.136719 33.3049 0.410156L32.2659 0.833985C32.2112 0.847657 32.1428 0.861328 32.1018 0.888672L29.1624 2.0918L29.1487 2.10547C29.1487 2.10547 29.1487 2.10547 29.135 2.10547H29.1213C28.4924 2.39258 28.219 3.11719 28.4788 3.73242C28.6702 4.21094 29.135 4.51172 29.6545 4.51172C29.8323 4.51172 29.9963 4.48437 30.1194 4.42969L34.262 2.74805C34.6311 2.59766 35.0276 2.5293 35.4104 2.5293C36.6682 2.5293 37.7756 3.28125 38.2541 4.42969L43.8459 18.1699L40.0588 19.7012C40.0588 19.7012 37.6663 14.6289 33.3596 16.2695C29.053 17.9102 30.9944 23.3242 30.9944 23.3242L27.2483 24.8691L25.6624 20.959L26.4143 20.6582C27.5764 20.1797 28.4924 19.2773 28.9846 18.1152C29.4768 16.9531 29.4905 15.668 29.012 14.5059C28.2737 12.7422 26.551 11.5801 24.6096 11.5801C24.0081 11.5801 23.4202 11.6895 22.8323 11.9219L22.0803 12.2227L20.5081 8.33984L21.3557 7.99805L21.342 7.9707C21.6018 7.83398 21.8206 7.61523 21.9299 7.3418C22.0666 7.02734 22.0666 6.67188 21.9299 6.35742L21.9163 6.33008C21.6975 5.86523 21.26 5.57812 20.7542 5.57812C20.6311 5.57812 20.5217 5.5918 20.426 5.61914C20.3713 5.63281 20.3167 5.64648 20.2756 5.67383L17.6916 6.72656L3.45923 12.4824C2.07837 13.043 0.998291 14.1094 0.424073 15.4766C-0.163818 16.8438 -0.17749 18.3613 0.383056 19.7559L12.51 49.5605C13.3713 51.6797 15.3948 53.0469 17.678 53.0469C18.3889 53.0469 19.1135 52.9102 19.7561 52.6367L21.8752 51.7891H21.8889C22.5315 51.5156 22.8323 50.791 22.5725 50.1484L21.7385 48.084C21.5061 47.5098 21.5061 46.8672 21.7522 46.293C21.9983 45.7051 22.4495 45.2676 23.0237 45.0352C23.3381 44.9121 23.6252 44.8574 23.9124 44.8574C24.8694 44.8574 25.7307 45.4316 26.0999 46.334L26.9338 48.3984C27.1252 48.877 27.5901 49.1777 28.1096 49.1777C28.2874 49.1777 28.4514 49.1504 28.5881 49.082L33.9338 46.9082C34.4397 46.7031 34.8362 46.3203 35.0686 45.8145L35.0823 45.7871C35.301 45.2539 35.301 44.707 35.0959 44.2012L34.5081 42.7246C34.3167 42.2461 33.8108 41.002 33.5784 40.4688L33.4006 40.0313L34.1526 39.7305C35.3557 39.252 36.2991 38.3223 36.8049 37.1328C37.3108 35.9297 37.3245 34.6035 36.8323 33.3867C36.094 31.541 34.3167 30.3516 32.3069 30.3516C31.678 30.3516 31.0627 30.4746 30.4749 30.707L29.7092 31.0078L28.178 27.2344L33.0862 25.2383L33.0999 25.2246C33.7424 24.9375 34.0295 24.2129 33.7698 23.584L33.0042 21.6973C32.512 20.5078 33.0452 18.9902 34.5764 18.5254C36.1077 18.0742 37.1877 19.4004 37.4065 19.9336L38.1721 21.8203C38.3635 22.2988 38.8284 22.5996 39.3479 22.5996C39.5256 22.5996 39.6897 22.5723 39.8264 22.5039L45.1721 20.3301C45.678 20.125 46.0745 19.7422 46.3069 19.2363L46.3342 19.1816C46.5256 18.6484 46.512 18.1152 46.3206 17.623ZM2.77563 18.8262C2.14673 17.2676 2.89868 15.4766 4.4436 14.834L18.1838 9.2832L20.0569 13.8906C20.344 14.5605 20.9866 14.9844 21.6975 14.9844C21.9163 14.9844 22.135 14.9434 22.3674 14.8477L23.803 14.2734C24.0627 14.1641 24.3362 14.1094 24.6233 14.1094C25.5256 14.1094 26.3323 14.6426 26.6604 15.4766C26.8792 16.0234 26.8791 16.625 26.6467 17.1582C26.4143 17.7051 25.9905 18.1152 25.4573 18.334L24.0217 18.9082L24.0081 18.9219C23.5706 19.1133 23.2288 19.4551 23.0647 19.8789C22.8733 20.3164 22.8733 20.8086 23.0647 21.2461L24.9241 25.8262L21.1643 27.3574L20.8499 26.5508C20.1116 24.7051 18.3342 23.5156 16.3245 23.5156C15.6956 23.5156 15.0803 23.6387 14.4924 23.8711C13.2756 24.3633 12.3323 25.293 11.8401 26.4961C11.3342 27.6992 11.3342 29.0117 11.8127 30.2148L12.1409 31.0352L8.36743 32.5527L2.77563 18.8262ZM29.3127 33.7285C29.5315 33.7285 29.7502 33.6875 29.9827 33.5918L31.4182 33.0039C31.7327 32.8809 32.0198 32.8262 32.3069 32.8262C33.2639 32.8262 34.1252 33.4004 34.4944 34.3027C34.7268 34.877 34.7268 35.5195 34.4807 36.0938C34.2346 36.6816 33.7834 37.1191 33.1956 37.3652L31.76 37.9531C30.8577 38.3359 30.4338 39.375 30.7893 40.2773L31.2541 41.4121C31.4456 41.8906 31.9514 43.1348 32.1702 43.668L32.594 44.7344L28.8342 46.2656L28.4788 45.377C27.7405 43.5313 25.9631 42.3418 23.9534 42.3418C23.3245 42.3418 22.7092 42.4648 22.1213 42.6973C20.9182 43.1758 19.9749 44.1055 19.469 45.2949C18.9631 46.4981 18.9495 47.8242 19.4417 49.041L19.8108 49.9434L18.8674 50.3262C18.4983 50.4766 18.1018 50.5449 17.719 50.5449C16.4612 50.5449 15.3538 49.793 14.8752 48.6445L9.29712 34.9043L13.7678 33.0996C14.6702 32.7168 15.094 31.6777 14.7385 30.7891L14.1233 29.2852C13.6311 28.082 14.219 26.7148 15.4221 26.2227C15.6956 26.1133 15.9827 26.0449 16.2971 26.0449C17.2542 26.0449 18.1018 26.6191 18.4709 27.5215L19.0725 29.0254C19.3596 29.6953 20.0022 30.1191 20.7131 30.1191C20.9319 30.1191 21.1506 30.0781 21.3831 29.9824L25.8538 28.1777L27.6721 32.6348C27.9592 33.3047 28.6018 33.7285 29.3127 33.7285Z" fill="black"/>
<path d="M25.334 6.37109C26.0891 6.37109 26.7012 5.75898 26.7012 5.00391C26.7012 4.24883 26.0891 3.63672 25.334 3.63672C24.5789 3.63672 23.9668 4.24883 23.9668 5.00391C23.9668 5.75898 24.5789 6.37109 25.334 6.37109Z" fill="black"/>
</g>
<defs>
<clipPath id="clip0">
<rect width="70" height="70" fill="white"/>
</clipPath>
</defs>
</svg>
