<svg width="70" height="70" viewBox="0 0 70 70" fill="none" xmlns="http://www.w3.org/2000/svg">
<path d="M14.2188 62.3438H16.4062V64.5312H14.2188V62.3438Z" fill="black"/>
<path d="M18.5938 62.3438H20.7812V64.5312H18.5938V62.3438Z" fill="black"/>
<path d="M22.9688 62.3438H25.1562V64.5312H22.9688V62.3438Z" fill="black"/>
<path d="M14.2188 57.9688H25.1562V60.1562H14.2188V57.9688Z" fill="black"/>
<path d="M19.5508 28.752C20.043 29.2441 20.7129 29.5312 21.4238 29.5312C22.873 29.5312 24.0625 28.3418 24.0625 26.8926V22.9687H26.25C29.2715 22.9687 31.7188 20.5215 31.7188 17.5V6.5625C31.7188 3.54102 29.2715 1.09375 26.25 1.09375H6.5625C3.54102 1.09375 1.09375 3.54102 1.09375 6.5625V17.5C1.09375 20.5215 3.54102 22.9687 6.5625 22.9687H13.7676L19.5508 28.752ZM3.28125 17.5V6.5625C3.28125 4.75781 4.75781 3.28125 6.5625 3.28125H26.25C28.0547 3.28125 29.5312 4.75781 29.5312 6.5625V17.5C29.5312 19.3047 28.0547 20.7812 26.25 20.7812H21.875V26.8926C21.875 27.2617 21.3555 27.4668 21.0957 27.207L14.6699 20.7812H6.5625C4.75781 20.7812 3.28125 19.3047 3.28125 17.5Z" fill="black"/>
<path d="M24.377 4.68945L12.0312 17.0488L9.5293 14.5469L7.98438 16.0918L12.0449 20.1523L25.9355 6.23437L24.377 4.68945Z" fill="black"/>
<path d="M53.5938 57.9688H55.7812V60.1562H53.5938V57.9688Z" fill="black"/>
<path d="M53.5938 53.5938H55.7812V55.7812H53.5938V53.5938Z" fill="black"/>
<path d="M53.5938 62.3438H55.7812V64.5312H53.5938V62.3438Z" fill="black"/>
<path d="M51.4062 14.2188C47.1816 14.2188 43.75 17.6504 43.75 21.875C43.75 26.0996 47.1816 29.5312 51.4062 29.5312C55.6309 29.5312 59.0625 26.0996 59.0625 21.875C59.0625 17.6504 55.6309 14.2188 51.4062 14.2188ZM51.4062 27.3438C48.3848 27.3438 45.9375 24.8965 45.9375 21.875C45.9375 18.8535 48.3848 16.4062 51.4062 16.4062C54.4277 16.4062 56.875 18.8535 56.875 21.875C56.875 24.8965 54.4277 27.3438 51.4062 27.3438Z" fill="black"/>
<path d="M62.5488 38.5273C63.8477 34.7813 64.5312 30.8027 64.5312 26.8379C64.5312 19.168 62.002 11.5664 57.3945 5.44141L55.7812 3.28125C54.7559 1.91406 53.1152 1.09375 51.4062 1.09375C49.6973 1.09375 48.0566 1.91406 47.0312 3.28125L45.418 5.42773C40.8105 11.5664 38.2812 19.168 38.2812 26.8379C38.2812 28.4648 38.4043 30.1055 38.623 31.7187H22.1758C21.5742 31.7187 21.082 32.2109 21.082 32.8125C21.082 33.4141 21.5742 33.9062 22.1758 33.9062H27.3438V40.4688H42.6562V33.9062H56.875C57.4766 33.9062 57.9688 34.3984 57.9688 35V65.625C57.9688 66.2266 57.4766 66.7188 56.875 66.7188H42.6562V60.1562H27.3438V66.7188H13.125C12.5234 66.7188 12.0312 66.2266 12.0312 65.625V35C12.0312 34.3984 12.5234 33.9062 13.125 33.9062H13.8086C14.4102 33.9062 14.9023 33.4141 14.9023 32.8125C14.9023 32.2109 14.4102 31.7187 13.8086 31.7187H13.125C11.3066 31.7187 9.84375 33.1816 9.84375 35V65.625C9.84375 67.4434 11.3066 68.9062 13.125 68.9062H56.875C58.6934 68.9062 60.1562 67.4434 60.1562 65.625V49.2188H60.5938C62.959 49.2188 65.2422 49.916 67.2109 51.2285L68.9062 52.3633V50.3262C68.9062 45.5547 66.4863 41.1113 62.5488 38.5273ZM40.4688 66.7188H29.5312V62.3438H31.7188V64.5312H33.9062V62.3438H36.0938V64.5312H38.2812V62.3438H40.4688V66.7188ZM47.168 6.74023L48.7812 4.58008C49.3965 3.75977 50.3809 3.26758 51.4062 3.26758C52.4316 3.26758 53.416 3.75977 54.0312 4.58008L55.6445 6.74023C56.3828 7.72461 57.0527 8.77734 57.668 9.83008H45.1309C45.7598 8.77734 46.4297 7.73828 47.168 6.74023ZM40.4688 38.2812H38.2812V36.0937H36.0938V38.2812H33.9062V36.0937H31.7188V38.2812H29.5312V33.9062H40.4688V38.2812ZM56.875 31.7187H40.8379C40.6055 30.1055 40.4688 28.4648 40.4688 26.8379C40.4688 21.7109 41.6992 16.625 43.9551 12.0312H58.8574C61.1133 16.6113 62.3438 21.7109 62.3438 26.8379C62.3438 30.8848 61.5918 34.918 60.1562 38.7051V35C60.1562 33.1816 58.6797 31.7187 56.875 31.7187ZM60.5938 47.0312H60.1562V44.0098L60.7715 42.793C61.127 42.082 61.4414 41.3711 61.7559 40.6328C64.3125 42.4785 66.0488 45.2539 66.5684 48.3574C64.6953 47.4824 62.6719 47.0312 60.5938 47.0312Z" fill="black"/>
<path d="M18.0195 33.9746C18.6462 33.9746 19.1543 33.4666 19.1543 32.8398C19.1543 32.2131 18.6462 31.7051 18.0195 31.7051C17.3928 31.7051 16.8848 32.2131 16.8848 32.8398C16.8848 33.4666 17.3928 33.9746 18.0195 33.9746Z" fill="black"/>
</svg>
