<svg width="214" height="54" fill="none" xmlns="http://www.w3.org/2000/svg"><g clip-path="url(#clip0)"><path d="M33.799 42.963c6.135-3.565 10.426-11.748 10.426-21.275 0-9.78-4.526-18.14-10.924-21.545C41.94 3.576 48.03 11.913 48.03 21.655c0 9.555-5.861 17.76-14.231 21.308z" fill="#DADADA"/><path d="M45.678 26.691a17.06 17.06 0 00-.224-1.162c-.916-8.943-7.085-16.922-16.332-19.793-9.42-2.926-19.316.298-25.227 7.39-.202.192-.397.385-.582.589C7.655 3.262 19.473-2.336 30.597 1.124c11.069 3.433 17.489 14.602 15.08 25.567z" fill="#FBBA00"/><path d="M45.454 25.529c-1.604-6.844-8.23-13.34-17.438-16.2-9.46-2.937-18.908-1.196-24.121 3.796C9.806 6.034 19.7 2.81 29.122 5.736c9.247 2.87 15.416 10.85 16.332 19.793z" fill="#9D9D9C"/><path d="M33.285 9.461a14.29 14.29 0 00-1.19-.138C23.17 7.5 13.6 10.905 8.045 18.735c-5.666 7.984-5.52 18.26-.436 25.953.123.248.257.49.391.727-8.8-7.23-10.66-20.03-3.978-29.452 6.655-9.378 19.383-12.062 29.262-6.502z" fill="#E42313"/><path d="M32.094 9.323c-7.101-.545-15.37 3.73-20.908 11.539-5.688 8.012-6.839 17.417-3.576 23.826-5.085-7.693-5.23-17.969.436-25.953C13.6 10.905 23.17 7.499 32.094 9.323z" fill="#DADADA"/><path d="M12.896 15.941c-.18.353-.341.71-.492 1.08-4.448 7.841-4.029 17.87 1.877 25.446 6.018 7.731 16.003 10.679 24.97 8.21.28-.044.554-.093.822-.154-9.638 6.11-22.573 4.011-29.68-5.108-7.069-9.07-5.84-21.853 2.503-29.474z" fill="#773483"/><path d="M12.404 17.021c-2.66 6.513-1.011 15.583 4.873 23.132 6.04 7.753 14.795 11.665 21.97 10.524-8.968 2.469-18.948-.485-24.97-8.21-5.901-7.576-6.32-17.605-1.873-25.446z" fill="#BDBCBC"/><path d="M13.036 37.062c.285.275.586.534.9.788 6.246 6.54 16.074 9.158 25.176 5.884 9.281-3.339 15.137-11.84 15.444-21.015.045-.276.073-.546.1-.821 3.012 10.899-2.905 22.437-13.862 26.382-10.901 3.924-22.892-1.074-27.758-11.218z" fill="#0070BA"/><path d="M39.453 39.558c-1.704 1.383-3.526 2.722-5.582 3.592 1.163-.677 2.185-1.702 3.196-2.689-8.845 2.96-17.779 1.736-23.137-2.611 6.252 6.54 16.08 9.157 25.182 5.884 9.281-3.339 15.137-11.841 15.444-21.016-.989 6.657-6.7 13.28-15.103 16.84z" fill="#9D9D9C"/><path d="M32.737 43.525c.357-.17.71-.358 1.056-.562 8.37-3.549 14.237-11.753 14.237-21.308 0-9.742-6.096-18.079-14.729-21.512a13.272 13.272 0 00-.743-.369h.006c11.415.948 20.372 10.387 20.372 21.881 0 11.445-8.868 20.84-20.2 21.87z" fill="#56AF31"/><path d="M68.832 13.037c0 1.72.715 2.26 1.883 2.26 1.436 0 2.095-.612 2.095-2.47 0-1.51-.776-2.33-2.246-2.33h-1.028V9.004h1.106c1.24 0 1.86-.711 1.86-2.276 0-1.223-.502-1.99-1.804-1.99-.972 0-1.687.65-1.687 1.72v.766h-1.844v-.496c0-2.26 1.145-3.483 3.492-3.483 2.442 0 3.682 1.284 3.682 3.483 0 1.703-.581 2.64-2.369 3.058.833.094 1.341.309 1.766.612.698.496.91 1.548.91 2.523 0 2.965-1.592 3.863-3.995 3.863-1.05 0-2.017-.27-2.643-.86-.62-.595-1.028-1.394-1.028-2.947v-.673h1.844v.733h.006zm11.907-1.725V10.26c0-1.13-.464-1.72-1.319-1.72-1.011 0-1.302.767-1.302 1.78v.992h2.62zm-2.62 2.392c0 .556.055.959.156 1.207.173.363.58.573 1.145.573.777 0 1.319-.386 1.319-1.494v-.154h1.726v.457c0 .827-.29 1.61-.972 2.012-.503.303-1.162.479-2.078.479-.872 0-1.9-.154-2.425-.882-.352-.479-.604-1.245-.604-2.391v-2.656c0-2.088.43-3.615 3.085-3.615 2.542 0 2.989 1.494 2.989 2.948v2.43h-4.347v1.086h.005zM90.54 7.428v9.163h-1.727V8.728h-2.056v5.604c0 1.146-.392 2.452-1.9 2.452-.252 0-.643-.038-1.028-.094v-1.206h.33c.737 0 .876-.634.876-1.3V7.427h5.504zm6.285 3.884V10.26c0-1.13-.464-1.72-1.319-1.72-1.005 0-1.301.767-1.301 1.78v.992h2.62zm-2.62 2.392c0 .556.055.959.156 1.207.173.363.581.573 1.145.573.777 0 1.32-.386 1.32-1.494v-.154h1.726v.457c0 .827-.29 1.61-.973 2.012-.502.303-1.162.479-2.073.479-.871 0-1.9-.154-2.424-.882-.352-.479-.604-1.245-.604-2.391v-2.656c0-2.088.425-3.615 3.084-3.615 2.543 0 2.99 1.494 2.99 2.948v2.43H94.21v1.086h-.005zm8.001-6.276v3.752h2.598V7.428h1.727v9.163h-1.727v-4.11h-2.598v4.11h-1.727V7.428h1.727zm10.594 3.35c0-1.493-.212-2.237-1.302-2.237-1.162 0-1.302.898-1.302 2.237v2.37c0 .61.023 1.245.213 1.685.173.38.502.65 1.084.65.525 0 .894-.225 1.084-.65.156-.363.212-.826.212-1.608v-2.447h.011zm-3.453-2.832c.62-.595 1.671-.711 2.151-.711.95 0 1.788.325 2.174.71.776.767.855 2.16.855 2.987v2.293c0 1.184-.174 2.066-.565 2.562-.519.688-1.263.997-2.464.997-1.067 0-1.86-.287-2.369-.86-.581-.666-.659-1.608-.659-2.694v-2.298c0-1.207.1-2.259.877-2.986zm7.118-.518h4.655v1.3h-2.928v7.863h-1.727V7.428zm8.013 5.763c0 .612.039 1.34.251 1.72.212.38.542.573 1.045.573 1.223 0 1.302-1.07 1.302-2.469V10.53c0-1.609-.425-1.99-1.241-1.99-1.028 0-1.357 1.075-1.357 2.16v2.491zm0 6.806h-1.727V7.427h1.727v.899c.564-.727 1.184-1.091 2.095-1.091 1.648 0 2.229 1.223 2.229 2.964v2.948c0 1.378-.134 2.408-.676 2.981-.385.403-.911.65-1.71.65-.832 0-1.436-.286-1.938-.92v4.139zm10.007-7.764c-.738 0-1.358.17-1.749.495-.352.304-.447.844-.447 1.417 0 .92.33 1.339 1.106 1.339.855 0 1.492-.667 1.492-2.144v-1.107h-.402zm-1.671 4.551c-.603 0-1.106-.154-1.514-.48-.486-.402-.738-1.074-.738-2.104 0-1.68.386-2.331 1.163-2.733.91-.48 2.095-.535 3.045-.535h.117V9.858c0-.898-.369-1.323-1.106-1.323-.95 0-1.224.48-1.302 1.493h-1.727a7.07 7.07 0 01.095-1.013c.274-1.3 1.632-1.78 2.833-1.78.973 0 1.71.154 2.252.667.447.418.676 1.052.676 2.143v6.54h-1.726v-.997c-.554.965-1.196 1.196-2.068 1.196zm10.711-1.494V8.729h-2v.92c0 3.158-.33 4.436-.855 5.643h2.855zm1.727-7.862v7.863h.927l-.447 3.52h-1.497l.218-2.22h-4.677l.212 2.22h-1.497l-.447-3.52h.737c.755-1.245 1.006-2.353 1.006-5.874v-1.99h5.465zm2.33 3.102c0-1.168.196-1.973.559-2.43.447-.535 1.262-.86 2.408-.86 1.805 0 2.732.805 2.732 2.315v.71h-1.726v-.501c0-.86-.425-1.223-1.028-1.223-.833 0-1.224.419-1.224 1.454v3.94c0 1.036.268 1.549 1.179 1.549.777 0 1.067-.496 1.067-1.433v-.347h1.727v.573c0 1.51-.755 2.507-2.66 2.507a5.133 5.133 0 01-1.592-.231c-.967-.326-1.453-1.34-1.453-3.059V10.53h.011zm7.498-3.102h1.727v3.752h1.084c.62 0 .989-.364 1.05-1.014l.134-1.3c.118-1.13.408-1.626 1.515-1.626.29 0 .564.039.793.094v1.245a1.795 1.795 0 00-.313-.038c-.268 0-.447.132-.525.843l-.134 1.168c-.095.821-.503 1.036-1.162 1.3.972.232 1.419.634 1.53 1.416l.252 1.835c.101.69.195 1.053.352 1.494h-1.788a6.116 6.116 0 01-.212-1.108l-.196-1.725c-.095-.881-.62-1.283-1.436-1.283h-.95v4.11h-1.726V7.428h.005zm9.661 0v7.042h.056l2.928-7.042h1.732v9.163h-1.554v-6.425h-.056l-2.642 6.425h-2.017V7.428h1.553zm8.996-3.444c0 .65.407.843.91.843.509 0 .911-.193.911-.843h1.548c0 1.3-1.107 1.895-2.464 1.895-1.358 0-2.464-.595-2.464-1.895h1.559zm-.559 3.444v7.042h.056l2.928-7.042h1.726v9.163h-1.553v-6.425h-.056l-2.637 6.43h-2.017V7.429h1.553zM69.179 22.399v3.752h2.598V22.4h1.726v9.163h-1.726v-4.11h-2.598v4.11h-1.727V22.4h1.727zm10.113 4.799c-.738 0-1.358.171-1.744.496-.352.309-.447.843-.447 1.416 0 .92.33 1.34 1.107 1.34.855 0 1.491-.673 1.491-2.144v-1.108h-.407zm-1.671 4.557c-.598 0-1.106-.154-1.514-.479-.486-.402-.738-1.069-.738-2.105 0-1.686.386-2.336 1.162-2.733.911-.48 2.096-.534 3.051-.534h.117v-1.075c0-.898-.368-1.322-1.106-1.322-.95 0-1.224.479-1.302 1.493h-1.726c.017-.402.039-.727.1-1.014.268-1.3 1.626-1.78 2.833-1.78.972 0 1.704.154 2.252.672.447.42.682 1.053.682 2.144v6.546h-1.727v-.992c-.57.948-1.212 1.18-2.084 1.18zm7.565-9.356v3.752h2.599V22.4h1.726v9.163h-1.726v-4.11h-2.599v4.11H83.46V22.4h1.727zm10.589 3.351c0-1.494-.212-2.238-1.302-2.238-1.162 0-1.296.898-1.296 2.237v2.37c0 .611.022 1.245.212 1.686.173.38.503.65 1.084.65.525 0 .894-.231 1.09-.65.156-.364.212-.821.212-1.61V25.75zm-3.453-2.833c.62-.595 1.67-.705 2.151-.705.95 0 1.788.325 2.174.705.776.766.854 2.16.854 2.986v2.298c0 1.185-.173 2.067-.558 2.563-.525.688-1.263.991-2.464.991-1.068 0-1.861-.286-2.364-.86-.581-.671-.66-1.608-.66-2.694v-2.303c-.005-1.201.096-2.254.867-2.981zm12.935.783h-2.325v7.863h-1.726V23.7h-2.33v-1.301h6.381v1.3zm5.749 2.584V25.23c0-1.13-.464-1.724-1.319-1.724-1.005 0-1.302.765-1.302 1.78v.991h2.621v.006zm-2.621 2.391c0 .557.062.959.157 1.207.173.364.581.573 1.145.573.777 0 1.319-.38 1.319-1.493v-.155h1.727v.463c0 .821-.291 1.604-.973 2.006-.503.308-1.162.48-2.073.48-.871 0-1.899-.155-2.425-.882-.346-.48-.597-1.246-.597-2.392v-2.661c0-2.083.424-3.615 3.084-3.615 2.542 0 2.989 1.493 2.989 2.948v2.43h-4.347v1.091h-.006zm5.711-6.276h1.844l1.224 3.08 1.162-3.08h1.687l-2.017 4.552 2.079 4.611h-1.805l-1.24-3.306-1.436 3.306h-1.766l2.364-4.611-2.096-4.552zm9.281 0v3.752h2.598V22.4h1.732v9.163h-1.732v-4.11h-2.598v4.11h-1.721V22.4h1.721zm10.594 3.351c0-1.494-.213-2.238-1.302-2.238-1.168 0-1.302.898-1.302 2.237v2.37c0 .611.022 1.245.218 1.686.173.38.503.65 1.089.65.526 0 .889-.231 1.084-.65.157-.364.213-.821.213-1.61V25.75zm-3.453-2.833c.62-.595 1.67-.705 2.156-.705.95 0 1.783.325 2.174.705.777.766.855 2.16.855 2.986v2.298c0 1.185-.173 2.067-.565 2.563-.525.688-1.262.991-2.464.991-1.067 0-1.86-.286-2.369-.86-.581-.671-.659-1.608-.659-2.694v-2.303c0-1.201.095-2.254.872-2.981zm13.219-.518v9.163h-1.726V23.7h-2.056v5.604c0 1.146-.386 2.447-1.9 2.447a8.24 8.24 0 01-1.028-.094V30.45h.33c.731 0 .871-.634.871-1.301v-6.75h5.509zm6.264 3.351c0-1.494-.212-2.238-1.302-2.238-1.162 0-1.302.898-1.302 2.237v2.37c0 .611.017 1.245.213 1.686.173.38.503.65 1.084.65.525 0 .888-.231 1.084-.65.156-.364.212-.821.212-1.61V25.75h.011zm-3.453-2.833c.62-.595 1.671-.705 2.151-.705.95 0 1.788.325 2.174.705.776.766.855 2.16.855 2.986v2.298c0 1.185-.173 2.067-.565 2.563-.525.688-1.262.991-2.464.991-1.067 0-1.86-.286-2.369-.86-.581-.671-.659-1.608-.659-2.694v-2.303c.005-1.201.106-2.254.877-2.981zm7.119-.518h4.659v1.3h-2.933v7.863h-1.726V22.4zm7.861 0v7.042h.061l2.928-7.042h1.727v9.163h-1.554v-6.43h-.055l-2.643 6.43h-2.017V22.4h1.553zm10.946 5.339c-.604.458-1.224.706-2.056.706-.637 0-1.185-.193-1.626-.557-.408-.347-.637-.86-.637-1.741v-3.747h1.726v2.87c0 .651.039 1.07.118 1.263.173.419.486.611 1.005.611.66 0 1.185-.21 1.475-.534v-4.21h1.727v9.163h-1.727v-3.824h-.005zm8.023-1.454V25.23c0-1.13-.463-1.724-1.318-1.724-1.011 0-1.302.765-1.302 1.78v.991h2.62v.006zm-2.614 2.391c0 .557.061.959.156 1.207.173.364.581.573 1.145.573.777 0 1.319-.38 1.319-1.493v-.155h1.727v.463c0 .821-.291 1.604-.967 2.006-.503.308-1.162.48-2.079.48-.871 0-1.899-.155-2.425-.882-.352-.48-.597-1.246-.597-2.392v-2.661c0-2.083.424-3.615 3.084-3.615 2.542 0 2.989 1.493 2.989 2.948v2.43h-4.347v1.091h-.005zm6.096-3.179c0-1.168.195-1.973.558-2.43.447-.535 1.263-.86 2.408-.86 1.805 0 2.738.805 2.738 2.314v.711h-1.726v-.496c0-.86-.43-1.223-1.028-1.223-.838 0-1.224.419-1.224 1.455v3.94c0 1.035.268 1.548 1.185 1.548.776 0 1.067-.496 1.067-1.433v-.347h1.726v.573c0 1.51-.754 2.507-2.659 2.507-.581 0-1.129-.077-1.593-.231-.972-.325-1.452-1.339-1.452-3.058v-2.97zm7.492-3.097h1.727v3.747h1.089c.62 0 .989-.364 1.045-1.014l.134-1.3c.118-1.13.408-1.626 1.514-1.626.291 0 .565.039.799.094v1.245a1.374 1.374 0 00-.312-.038c-.274 0-.447.132-.526.843l-.134 1.168c-.1.82-.508 1.03-1.162 1.3.972.226 1.414.628 1.531 1.416l.251 1.835c.095.689.196 1.053.352 1.494h-1.782a6.207 6.207 0 01-.212-1.108l-.196-1.725c-.095-.881-.62-1.284-1.436-1.284h-.95v4.116h-1.726V22.4h-.006zm9.667 0v7.042h.056l2.927-7.042h1.727v9.163h-1.553v-6.43h-.056l-2.643 6.43h-2.012V22.4h1.554zm8.995-3.444c0 .65.408.843.911.843.503 0 .911-.193.911-.843h1.553c0 1.3-1.106 1.896-2.464 1.896-1.358 0-2.464-.595-2.464-1.896h1.553zm-.564 3.444v7.042h.056l2.928-7.042h1.726v9.163h-1.553v-6.43h-.056l-2.637 6.43h-2.017V22.4h1.553zM67.452 46.534V37.37h1.727v7.863h2.598V37.37h1.726v7.863h.933l-.447 3.521h-1.491l.234-2.22h-5.28zm12.717-5.279v-1.053c0-1.13-.464-1.719-1.319-1.719-1.006 0-1.296.766-1.296 1.78v.992h2.615zm-2.62 2.391c0 .551.055.954.156 1.207.173.364.58.573 1.145.573.777 0 1.319-.386 1.319-1.493v-.154h1.726v.462c0 .822-.29 1.61-.966 2.012-.503.308-1.168.479-2.079.479-.871 0-1.9-.154-2.425-.882-.352-.479-.603-1.245-.603-2.391v-2.661c0-2.083.43-3.615 3.084-3.615 2.542 0 2.984 1.493 2.984 2.948v2.43h-4.347v1.085h.005zm8.001-6.276v3.747h2.598V37.37h1.727v9.164h-1.727v-4.11H85.55v4.11h-1.727V37.37h1.727zm12.342 1.3h-2.33v7.864h-1.726V38.67h-2.33v-1.3h6.386v1.3zm3.37 4.458c0 .612.039 1.34.251 1.72.212.38.542.573 1.045.573 1.224 0 1.302-1.075 1.302-2.469v-2.49c0-1.604-.43-1.99-1.241-1.99-1.028 0-1.357 1.07-1.357 2.16v2.496zm0 6.811h-1.727V37.37h1.727v.898c.564-.727 1.184-1.09 2.095-1.09 1.648 0 2.229 1.223 2.229 2.964v2.948c0 1.377-.139 2.413-.681 2.986-.391.403-.911.65-1.71.65-.833 0-1.436-.286-1.939-.92v4.133h.006z" fill="#000"/></g><defs><clipPath id="clip0"><path fill="#fff" d="M0 0h214v54H0z"/></clipPath></defs></svg>